<svg width="400" height="400" viewBox="0 0 400 400" fill="none" xmlns="http://www.w3.org/2000/svg">
<path fill-rule="evenodd" clip-rule="evenodd" d="M200 368.992C293.332 368.992 368.992 293.332 368.992 200C368.992 106.668 293.332 31.0078 200 31.0078C106.668 31.0078 31.0078 106.668 31.0078 200C31.0078 293.332 106.668 368.992 200 368.992ZM200 400C310.457 400 400 310.457 400 200C400 89.543 310.457 0 200 0C89.543 0 0 89.543 0 200C0 310.457 89.543 400 200 400Z" fill="#145569"/>
<path d="M87.7517 169.252L74.6593 178.543C67.6763 183.498 66.0326 193.176 70.988 200.159L132.042 286.194C136.991 293.169 146.655 294.818 153.637 289.88L333.809 162.461C340.808 157.512 342.462 147.821 337.501 140.831L328.207 127.733C323.258 120.76 313.599 119.11 306.616 124.044L162.253 226.058C156.666 230.006 148.939 228.685 144.98 223.107L109.368 172.923C104.413 165.94 94.7347 164.297 87.7517 169.252Z" fill="#145569"/>
</svg>
